<?xml version="1.0" encoding="utf-8"?>
<!-- Generator: Adobe Illustrator 17.1.0, SVG Export Plug-In . SVG Version: 6.00 Build 0)  -->
<!DOCTYPE svg PUBLIC "-//W3C//DTD SVG 1.1//EN" "http://www.w3.org/Graphics/SVG/1.1/DTD/svg11.dtd">
<svg version="1.1" xmlns="http://www.w3.org/2000/svg" xmlns:xlink="http://www.w3.org/1999/xlink" x="0px" y="0px"
	 viewBox="0 0 430.858 56.693" style="enable-background:new 0 0 430.858 56.693;" xml:space="preserve">
<style type="text/css">
	.st0{fill:#010202;}
</style>
<symbol  id="ART_x2B_COM" viewBox="0 -34.203 259.155 34.203">
	<path d="M0-33.403L15.151-0.75h3.3l15.151-32.653h-3.65l-4.851,10.601H8.251l-4.8-10.601H0z M9.501-20.102h14.401L16.851-4.65h-0.3
		L9.501-20.102z"/>
	<path d="M40.953-33.403V-0.75h17.952c4.1,0,6.95-1.1,8.901-3.2c1.55-1.65,2.45-3.8,2.45-6.25c0-4.4-3.05-8.001-7.9-8.901
		l8.2-14.301h-3.8l-7.801,13.901H44.303v-13.901H40.953z M44.303-3.75v-12.801h15.801c4.1,0,6.801,2.95,6.801,6.4
		c0,1.65-0.6,3.1-1.7,4.25c-1.55,1.6-3.65,2.15-6.3,2.15H44.303z"/>
	<path d="M74.855-0.75h28.552v-3H90.806v-29.652h-3.35V-3.75H74.855V-0.75z"/>
	<path d="M108.27-17.407h11.951v10.901h3.05v-10.901h11.851v-2.75h-11.851v-10.851h-3.05v10.851H108.27V-17.407z"/>
	<path d="M177.949-27.852c-3.6-3.5-8.901-6.35-15.301-6.35c-10.451,0-18.001,7.701-18.001,17.151C144.646-7.701,152.247,0,162.497,0
		c5.7,0,11.101-2.15,14.651-5.5l-2.25-2.2c-3.15,2.9-7.801,4.75-12.351,4.75c-8.3,0-14.401-6.401-14.401-14.151
		c0-7.751,6.151-14.101,14.551-14.101c5.251,0,9.851,2.35,13.001,5.55L177.949-27.852z"/>
	<path d="M200.75,0c10.051,0,18.052-7.601,18.052-17.001c0-9.551-8.001-17.201-18.052-17.201c-10.001,0-17.902,7.651-17.902,17.201
		C182.849-7.601,190.749,0,200.75,0z M200.75-31.202c8.151,0,14.551,6.35,14.551,14.201c0,7.751-6.401,14.051-14.551,14.051
		c-8.051,0-14.351-6.3-14.351-14.051C186.399-24.852,192.699-31.202,200.75-31.202z"/>
	<path d="M255.804-33.403V-6.7h-0.25l-12.551-21.002h-0.9L229.552-6.7h-0.25v-26.702h-3.2V-0.75h3.7l12.851-21.502h0.1L255.554-0.75
		h3.6v-32.653H255.804z"/>
</symbol>
<symbol  id="ART_x2B_COM_Bildmarke" viewBox="0 -56.694 155.906 56.693">
	<path d="M0-0.001v-56.693h155.906v56.693H0z M3.094-2.79l73.325-0.012V-26.98H53.957v-2.761h22.461v-24.177H31.42v14.232h-3.067
		v-14.232L3.094-53.905V-2.79z M79.486-53.917v24.177h22.463v2.761H79.486v24.177h73.326V-26.98h-25.258v9.948h-3.067v-22.656h3.067
		v9.947h25.258v-24.177H79.486z M31.42-26.97h-3.067v9.948h3.067V-26.97z"/>
</symbol>
<g id="ART_x2B_COM_STUDIOS">
	
		<use xlink:href="#ART_x2B_COM_Bildmarke"  width="155.906" height="56.693" x="0" y="-56.694" transform="matrix(1 0 0 -1 -3.255208e-04 -6.510417e-04)" style="overflow:visible;"/>
	<path id="STUDIOS_2_" d="M183.532,51.771c0,2.364-2.097,3.832-5.472,3.832c-3.093,0-4.999-1.324-6.165-2.32l-0.193-0.165
		l1.153-1.322l0.189,0.167c1.046,0.921,2.564,1.978,5.035,1.978c1.665,0,3.609-0.521,3.609-1.989c0-1.339-1.366-1.685-3.725-1.829
		c-2.493-0.161-5.518-0.356-5.518-3.052c0-2.577,2.614-3.491,4.853-3.491c2.326,0,4.317,0.9,5.315,1.672l0.213,0.165l-1.164,1.307
		l-0.187-0.161c-0.743-0.638-2.246-1.32-4.237-1.32c-1.426,0-2.949,0.449-2.949,1.71c0,1.083,1.374,1.247,3.472,1.375l0.233,0.014
		C180.086,48.464,183.532,48.669,183.532,51.771z M185.227,45.561h4.501v9.722h1.843v-9.722h4.481v-1.683h-10.825V45.561z
		 M207.729,51.271c0,1.609-1.377,2.649-3.51,2.649c-1.747,0-3.509-0.819-3.509-2.649v-7.393h-1.823v7.393
		c0,2.591,2.143,4.332,5.333,4.332c3.189,0,5.333-1.741,5.333-4.332v-7.393h-1.823V51.271z M222.832,45.605
		c1.037,1.059,1.581,2.434,1.581,3.985c0,1.579-0.582,3.008-1.638,4.022c-1.283,1.188-2.666,1.67-4.775,1.67h-5.172V43.879h5.172
		C220.61,43.879,221.864,44.709,222.832,45.605z M214.65,53.6h3.309c1.735,0,2.593-0.451,3.415-1.178
		c0.742-0.723,1.155-1.731,1.155-2.832c0-1.08-0.4-2.076-1.126-2.803c-0.812-0.755-1.674-1.227-3.443-1.227h-3.309V53.6z
		 M228.227,55.283h1.823V43.879h-1.823V55.283z M246.952,49.571c0,3.326-2.958,6.032-6.593,6.032c-3.663,0-6.532-2.649-6.532-6.032
		c0-3.305,2.931-5.992,6.532-5.992C243.994,43.579,246.952,46.266,246.952,49.571z M235.709,49.571c0,2.398,2.085,4.35,4.649,4.35
		c2.598,0,4.71-1.951,4.71-4.35c0-2.377-2.113-4.311-4.71-4.311C237.795,45.261,235.709,47.194,235.709,49.571z M255.635,48.34
		l-0.233-0.014c-2.098-0.128-3.473-0.292-3.473-1.375c0-1.261,1.523-1.71,2.95-1.71c1.992,0,3.495,0.683,4.236,1.32l0.188,0.161
		l1.164-1.307l-0.213-0.164c-0.997-0.772-2.988-1.673-5.315-1.673c-2.238,0-4.852,0.914-4.852,3.491
		c0,2.695,3.025,2.891,5.518,3.052c2.359,0.145,3.725,0.49,3.725,1.829c0,1.468-1.944,1.989-3.61,1.989
		c-2.469,0-3.988-1.057-5.035-1.978l-0.189-0.167l-1.153,1.322l0.193,0.165c1.166,0.996,3.074,2.32,6.165,2.32
		c3.375,0,5.472-1.468,5.472-3.832C261.172,48.669,257.726,48.464,255.635,48.34z"/>
	
		<use xlink:href="#ART_x2B_COM"  width="259.155" height="34.203" x="0" y="-34.203" transform="matrix(1 0 0 -1 171.7028 0.466)" style="overflow:visible;"/>
</g>
<g id="ART_x2B_COM_ART">
</g>
<g id="ART_x2B_COM_COMMUNICATION">
</g>
<g id="ART_x2B_COM_RESEARCH">
</g>
<g id="ART_x2B_COM_zentriert">
</g>
</svg>
